<svg width="320" height="156" viewBox="0 0 320 156" fill="none" xmlns="http://www.w3.org/2000/svg">
<path d="M100.12 73L107.848 56.2H109.072L116.8 73H115.48L108.184 56.968H108.712L101.44 73H100.12ZM102.952 68.272L103.36 67.24H113.416L113.824 68.272H102.952ZM119.85 73V56.2H125.874C127.282 56.2 128.49 56.424 129.498 56.872C130.506 57.32 131.282 57.968 131.826 58.816C132.37 59.648 132.642 60.664 132.642 61.864C132.642 63.032 132.37 64.04 131.826 64.888C131.282 65.736 130.506 66.384 129.498 66.832C128.49 67.28 127.282 67.504 125.874 67.504H120.522L121.074 66.928V73H119.85ZM121.074 67L120.522 66.4H125.874C127.682 66.4 129.05 66.008 129.978 65.224C130.922 64.424 131.394 63.304 131.394 61.864C131.394 60.408 130.922 59.288 129.978 58.504C129.05 57.704 127.682 57.304 125.874 57.304H120.522L121.074 56.704V67ZM133.12 73L140.848 56.2H142.072L149.8 73H148.48L141.184 56.968H141.712L134.44 73H133.12ZM135.952 68.272L136.36 67.24H146.416L146.824 68.272H135.952ZM159.72 73.12C158.472 73.12 157.312 72.912 156.24 72.496C155.184 72.064 154.264 71.464 153.48 70.696C152.696 69.928 152.088 69.032 151.656 68.008C151.224 66.968 151.008 65.832 151.008 64.6C151.008 63.368 151.224 62.24 151.656 61.216C152.088 60.176 152.696 59.272 153.48 58.504C154.28 57.736 155.208 57.144 156.264 56.728C157.32 56.296 158.472 56.08 159.72 56.08C160.904 56.08 162.008 56.272 163.032 56.656C164.072 57.04 164.96 57.624 165.696 58.408L164.928 59.2C164.208 58.496 163.408 57.992 162.528 57.688C161.664 57.368 160.744 57.208 159.768 57.208C158.696 57.208 157.696 57.392 156.768 57.76C155.856 58.128 155.056 58.648 154.368 59.32C153.696 59.992 153.168 60.776 152.784 61.672C152.416 62.568 152.232 63.544 152.232 64.6C152.232 65.656 152.416 66.632 152.784 67.528C153.168 68.424 153.696 69.208 154.368 69.88C155.056 70.552 155.856 71.072 156.768 71.44C157.696 71.808 158.696 71.992 159.768 71.992C160.744 71.992 161.664 71.84 162.528 71.536C163.408 71.216 164.208 70.696 164.928 69.976L165.696 70.768C164.96 71.552 164.072 72.144 163.032 72.544C162.008 72.928 160.904 73.12 159.72 73.12ZM182.251 56.2H183.475V73H182.251V56.2ZM171.019 73H169.795V56.2H171.019V73ZM182.395 65.008H170.875V63.928H182.395V65.008ZM190.422 63.928H199.518V65.008H190.422V63.928ZM190.566 71.896H200.934V73H189.342V56.2H200.574V57.304H190.566V71.896ZM107.464 102.24C106.152 102.24 104.896 102.056 103.696 101.688C102.496 101.304 101.544 100.816 100.84 100.224L101.92 97.8C102.592 98.328 103.424 98.768 104.416 99.12C105.408 99.472 106.424 99.648 107.464 99.648C108.344 99.648 109.056 99.552 109.6 99.36C110.144 99.168 110.544 98.912 110.8 98.592C111.056 98.256 111.184 97.88 111.184 97.464C111.184 96.952 111 96.544 110.632 96.24C110.264 95.92 109.784 95.672 109.192 95.496C108.616 95.304 107.968 95.128 107.248 94.968C106.544 94.808 105.832 94.624 105.112 94.416C104.408 94.192 103.76 93.912 103.168 93.576C102.592 93.224 102.12 92.76 101.752 92.184C101.384 91.608 101.2 90.872 101.2 89.976C101.2 89.064 101.44 88.232 101.92 87.48C102.416 86.712 103.16 86.104 104.152 85.656C105.16 85.192 106.432 84.96 107.968 84.96C108.976 84.96 109.976 85.088 110.968 85.344C111.96 85.6 112.824 85.968 113.56 86.448L112.576 88.872C111.824 88.424 111.048 88.096 110.248 87.888C109.448 87.664 108.68 87.552 107.944 87.552C107.08 87.552 106.376 87.656 105.832 87.864C105.304 88.072 104.912 88.344 104.656 88.68C104.416 89.016 104.296 89.4 104.296 89.832C104.296 90.344 104.472 90.76 104.824 91.08C105.192 91.384 105.664 91.624 106.24 91.8C106.832 91.976 107.488 92.152 108.208 92.328C108.928 92.488 109.64 92.672 110.344 92.88C111.064 93.088 111.712 93.36 112.288 93.696C112.88 94.032 113.352 94.488 113.704 95.064C114.072 95.64 114.256 96.368 114.256 97.248C114.256 98.144 114.008 98.976 113.512 99.744C113.032 100.496 112.288 101.104 111.28 101.568C110.272 102.016 109 102.24 107.464 102.24ZM120.523 102V87.84H114.955V85.2H129.211V87.84H123.643V102H120.523ZM139.191 102.24C137.879 102.24 136.671 102.024 135.567 101.592C134.463 101.16 133.503 100.56 132.687 99.792C131.871 99.008 131.239 98.096 130.791 97.056C130.343 96 130.119 94.848 130.119 93.6C130.119 92.352 130.343 91.208 130.791 90.168C131.239 89.112 131.871 88.2 132.687 87.432C133.503 86.648 134.463 86.04 135.567 85.608C136.671 85.176 137.871 84.96 139.167 84.96C140.479 84.96 141.679 85.176 142.767 85.608C143.871 86.04 144.831 86.648 145.647 87.432C146.463 88.2 147.095 89.112 147.543 90.168C147.991 91.208 148.215 92.352 148.215 93.6C148.215 94.848 147.991 96 147.543 97.056C147.095 98.112 146.463 99.024 145.647 99.792C144.831 100.56 143.871 101.16 142.767 101.592C141.679 102.024 140.487 102.24 139.191 102.24ZM139.167 99.504C140.015 99.504 140.799 99.36 141.519 99.072C142.239 98.784 142.863 98.376 143.391 97.848C143.919 97.304 144.327 96.68 144.615 95.976C144.919 95.256 145.071 94.464 145.071 93.6C145.071 92.736 144.919 91.952 144.615 91.248C144.327 90.528 143.919 89.904 143.391 89.376C142.863 88.832 142.239 88.416 141.519 88.128C140.799 87.84 140.015 87.696 139.167 87.696C138.319 87.696 137.535 87.84 136.815 88.128C136.111 88.416 135.487 88.832 134.943 89.376C134.415 89.904 133.999 90.528 133.695 91.248C133.407 91.952 133.263 92.736 133.263 93.6C133.263 94.448 133.407 95.232 133.695 95.952C133.999 96.672 134.415 97.304 134.943 97.848C135.471 98.376 136.095 98.784 136.815 99.072C137.535 99.36 138.319 99.504 139.167 99.504ZM151.522 102V85.2H158.434C159.922 85.2 161.194 85.44 162.25 85.92C163.322 86.4 164.146 87.088 164.722 87.984C165.298 88.88 165.586 89.944 165.586 91.176C165.586 92.408 165.298 93.472 164.722 94.368C164.146 95.248 163.322 95.928 162.25 96.408C161.194 96.872 159.922 97.104 158.434 97.104H153.25L154.642 95.688V102H151.522ZM162.514 102L158.266 95.904H161.602L165.874 102H162.514ZM154.642 96.024L153.25 94.536H158.29C159.666 94.536 160.698 94.24 161.386 93.648C162.09 93.056 162.442 92.232 162.442 91.176C162.442 90.104 162.09 89.28 161.386 88.704C160.698 88.128 159.666 87.84 158.29 87.84H153.25L154.642 86.304V96.024ZM169.076 102V85.2H171.644L178.988 97.464H177.644L184.868 85.2H187.436L187.46 102H184.508L184.484 89.832H185.108L178.964 100.08H177.572L171.332 89.832H172.052V102H169.076Z" fill="#333333"/>
<path d="M199.774 102.24C198.494 102.24 197.302 102.032 196.198 101.616C195.11 101.184 194.158 100.584 193.342 99.816C192.542 99.032 191.918 98.112 191.47 97.056C191.022 96 190.798 94.848 190.798 93.6C190.798 92.352 191.022 91.2 191.47 90.144C191.918 89.088 192.55 88.176 193.366 87.408C194.182 86.624 195.134 86.024 196.222 85.608C197.31 85.176 198.502 84.96 199.798 84.96C201.174 84.96 202.43 85.2 203.566 85.68C204.702 86.144 205.662 86.84 206.446 87.768L204.43 89.664C203.822 89.008 203.142 88.52 202.39 88.2C201.638 87.864 200.822 87.696 199.942 87.696C199.062 87.696 198.254 87.84 197.518 88.128C196.798 88.416 196.166 88.824 195.622 89.352C195.094 89.88 194.678 90.504 194.374 91.224C194.086 91.944 193.942 92.736 193.942 93.6C193.942 94.464 194.086 95.256 194.374 95.976C194.678 96.696 195.094 97.32 195.622 97.848C196.166 98.376 196.798 98.784 197.518 99.072C198.254 99.36 199.062 99.504 199.942 99.504C200.822 99.504 201.638 99.344 202.39 99.024C203.142 98.688 203.822 98.184 204.43 97.512L206.446 99.432C205.662 100.344 204.702 101.04 203.566 101.52C202.43 102 201.166 102.24 199.774 102.24ZM209.436 102V85.2H216.348C217.836 85.2 219.108 85.44 220.164 85.92C221.236 86.4 222.06 87.088 222.636 87.984C223.212 88.88 223.5 89.944 223.5 91.176C223.5 92.408 223.212 93.472 222.636 94.368C222.06 95.248 221.236 95.928 220.164 96.408C219.108 96.872 217.836 97.104 216.348 97.104H211.164L212.556 95.688V102H209.436ZM220.428 102L216.18 95.904H219.516L223.788 102H220.428ZM212.556 96.024L211.164 94.536H216.204C217.58 94.536 218.612 94.24 219.3 93.648C220.004 93.056 220.356 92.232 220.356 91.176C220.356 90.104 220.004 89.28 219.3 88.704C218.612 88.128 217.58 87.84 216.204 87.84H211.164L212.556 86.304V96.024ZM224.614 102L232.174 85.2H235.246L242.83 102H239.566L233.062 86.856H234.31L227.83 102H224.614ZM228.094 98.112L228.934 95.664H238.006L238.846 98.112H228.094ZM248.036 102L242.468 85.2H245.708L250.676 100.392H249.068L254.228 85.2H257.108L262.124 100.392H260.564L265.652 85.2H268.628L263.06 102H259.748L255.164 88.296H256.028L251.372 102H248.036ZM271.17 102V85.2H274.29V99.36H283.074V102H271.17ZM288.417 92.184H296.769V94.752H288.417V92.184ZM288.657 99.384H298.137V102H285.537V85.2H297.801V87.816H288.657V99.384ZM301.615 102V85.2H308.527C310.015 85.2 311.287 85.44 312.343 85.92C313.415 86.4 314.239 87.088 314.815 87.984C315.391 88.88 315.679 89.944 315.679 91.176C315.679 92.408 315.391 93.472 314.815 94.368C314.239 95.248 313.415 95.928 312.343 96.408C311.287 96.872 310.015 97.104 308.527 97.104H303.343L304.735 95.688V102H301.615ZM312.607 102L308.359 95.904H311.695L315.967 102H312.607ZM304.735 96.024L303.343 94.536H308.383C309.759 94.536 310.791 94.24 311.479 93.648C312.183 93.056 312.535 92.232 312.535 91.176C312.535 90.104 312.183 89.28 311.479 88.704C310.791 88.128 309.759 87.84 308.383 87.84H303.343L304.735 86.304V96.024Z" fill="#9E191D"/>
<g clip-path="url(#clip0_3_15)">
<path d="M24.927 154.981C25.224 154.684 25.1153 154.309 24.5517 153.687C20.956 149.72 16.8009 135.356 17.7447 130.155C18.9759 123.37 19.4748 120.537 20.1732 116.364C21.1602 110.467 21.4807 108.462 21.6779 106.952C21.7648 106.286 21.9565 105.259 22.1036 104.671C22.3075 103.855 22.4567 100.107 23.2951 98.0157C23.4197 97.7047 23.601 97.4016 23.8503 97.1777C24.3709 96.7105 25.0737 96.4948 25.7141 96.2135C27.3394 95.4997 28.9204 95.0843 30.7163 94.3862C34.1781 93.0406 34.7143 92.7783 35.5081 92.0422C35.8463 91.7287 36.2142 91.5472 36.649 91.4793C37.0019 91.4243 37.6671 91.2542 38.1273 91.1015C39.1326 90.7678 39.0829 90.73 38.8933 91.6855C37.9864 96.2561 43.9119 99.8283 44.998 95.3657C45.1225 94.8544 45.1931 94.8762 45.7079 95.5851C47.5573 98.1318 50.8602 96.5904 51.1435 93.0484C51.2155 92.1504 51.1493 91.6657 50.7508 90.1251C50.7179 89.9979 50.7772 89.9288 50.8968 89.9546C51.0076 89.9785 51.671 89.9971 52.3708 89.996C53.5164 89.9942 53.7171 90.0356 54.3837 90.4118C55.0346 90.7792 55.4681 90.8743 57.9721 91.1996C60.7139 91.5558 62.7582 91.9029 64.7597 92.3521C65.7046 92.5642 65.7046 92.5642 66.5011 94.9785C67.4151 97.7492 68.0518 99.2001 68.8968 100.438C69.2241 100.917 69.7325 101.889 70.0266 102.598C70.3207 103.307 71.0198 104.977 71.58 106.311C72.1403 107.644 72.9222 109.537 73.3177 110.517C76.5278 118.476 77.6659 120.991 78.3301 121.594C78.9866 122.191 79.2864 123.08 82.3571 133.548C83.5585 137.643 84.1357 140.919 84.1357 143.644C84.1357 145.626 84.2459 145.937 84.92 145.859C86.6284 145.662 86.3571 141.157 84.0514 131.437C83.1261 127.535 81.5688 120.289 81.5688 119.885C81.5688 119.453 80.72 117.3 79.6464 115.009C75.0496 105.202 72.4422 99.1183 72.4422 98.2012C72.4422 96.5029 68.6772 89.2832 67.2481 88.241C66.164 87.4505 63.5953 86.3071 62.1748 85.9827C60.3173 85.5586 60.2608 85.5207 61.3192 85.4083C62.5003 85.2829 67.2753 85.2525 67.705 85.3675C67.9269 85.427 68.5437 86.23 69.6476 87.8968C70.5372 89.24 71.5514 90.6598 71.9015 91.0519C72.2516 91.4441 72.9902 92.4414 73.5428 93.2682C74.6896 94.9837 76.4106 97.1224 78.66 99.6275C79.5148 100.579 81.4608 102.753 82.9845 104.459C85.1885 106.925 85.891 107.622 86.4209 107.868C87.1604 108.21 87.334 108.392 89.3603 110.945C93.7946 116.532 95.5308 118.907 97.1348 121.58C98.5974 124.018 99.3016 124.581 99.8707 123.768C100.272 123.196 99.8345 122.282 97.2153 118.218C96.4319 117.002 95.4663 115.494 95.0697 114.867C94.6731 114.239 93.4081 112.282 92.2586 110.517C89.6784 106.556 89.4477 106.192 88.9813 105.348C88.5804 104.622 86.6591 102.437 83.4941 99.109C79.1988 94.5918 76.1163 90.7645 75.9419 89.732C75.61 87.7678 72.2698 83.5488 69.3377 81.3903C67.2902 79.883 62.991 79.4548 58.9719 80.3578C57.2664 80.741 57.2664 80.741 56.6415 80.4374C56.2978 80.2704 55.7338 80.095 55.388 80.0476C54.3895 79.9107 54.4233 78.9875 55.4369 78.7131C55.9716 78.5683 56.3247 78.3166 57.1137 77.5181C57.6635 76.9617 59.0009 75.7734 60.0859 74.8775C61.1709 73.9815 62.518 72.7918 63.0793 72.2336C63.6772 71.6391 64.6317 70.9008 65.3834 70.4515C66.0893 70.0296 67.7438 68.9553 69.06 68.0641C70.572 67.0405 72.3048 66.0231 73.7659 65.3011C75.6302 64.3798 76.2192 64.0143 76.8037 63.4161C77.6638 62.5358 78.9187 61.7755 82.4069 60.0213C84.5146 58.9613 85.0103 58.6552 85.082 58.3694C85.3799 57.1826 83.6968 57.5429 78.1464 59.8544C76.9307 60.3607 75.6021 60.8293 75.194 60.8959C74.2794 61.0452 74.266 61.0523 71.7293 62.7442C68.7337 64.7421 63.3522 67.8197 62.2462 68.1673C61.244 68.4822 60.1826 69.3117 57.6188 71.7834C53.7881 75.4766 54.0229 75.3653 53.1328 73.9087C52.4604 72.8082 52.4604 72.8082 53.6364 71.734C56.0038 69.5715 57.6716 66.7064 58.2467 63.8138C58.2937 63.578 58.6993 62.8701 59.1483 62.2407C60.9791 59.6741 62.1947 56.9636 63.8996 51.6462C64.2936 50.4173 65.0232 48.2889 65.5209 46.9164C66.5338 44.1227 66.7248 43.483 66.8829 42.3531C66.9433 41.9217 67.0909 41.0875 67.2108 40.4992C67.8331 37.448 67.8116 35.346 67.1446 34.0417C66.8419 33.4496 66.8388 33.3718 66.9421 28.9484C67.071 23.4326 67.0962 22.8991 67.3865 19.5662C67.6985 15.9836 67.6413 15.6894 65.6228 10.4813C62.7539 3.07882 60.9907 0 59.6205 0C58.6612 0 58.7011 0.590951 59.7709 2.22302C62.0426 5.68896 63.4232 11.1764 64.0842 15.916C64.4938 18.8535 63.8521 17.4907 63.8346 24.8104C63.8154 32.8464 63.8042 33.1763 63.5297 33.7256C63.2728 34.2398 63.244 34.5909 63.2374 37.2907C63.2297 40.2853 63.2297 40.2853 62.5648 41.2517C62.0567 41.9897 61.7604 42.6635 61.3106 44.1037C60.234 47.5511 57.883 53.9508 57.7481 53.8017C57.6925 53.7403 57.4363 53.0496 57.1788 52.2669C52.9096 39.2908 43.3858 33.5444 36.0807 39.5367C32.9673 42.0905 29.2154 49.1321 28.0983 54.5179C27.8425 55.7513 26.9034 54.3598 23.8145 48.1698C22.4692 45.4738 21.8656 44.5385 20.9566 43.7409C20.2689 43.1374 20.2689 43.1374 19.8224 40.6418C19.4561 38.5947 19.2774 37.9413 18.8278 37.0055C18.48 36.2815 18.1186 35.1612 17.8387 33.9395C17.0291 30.406 16.5322 27.3074 15.6225 24.0559C15.2404 22.6898 14.517 21.4187 14.2637 20.0229C13.2905 14.6602 13.0655 8.97348 13.7068 3.6816C13.8861 2.20178 13.8024 1.85383 13.2666 1.85383C11.977 1.85383 11.2345 7.55249 11.2599 17.255C11.2657 19.0981 11.0746 19.927 11.2389 21.2478C11.3813 22.3927 11.8029 23.4853 12.104 24.599C12.9164 27.6032 13.3427 28.5004 14.6442 33.583C15.2745 36.0444 15.4382 36.9046 15.4042 37.5759C15.269 40.2437 15.3115 40.6331 15.955 42.6383C16.2949 43.6971 16.7008 44.8142 16.857 45.1206C17.0132 45.4271 17.2288 45.9726 17.3361 46.3328C17.4434 46.693 18.2762 48.27 19.1869 49.8372C20.0976 51.4045 21.6051 54.196 22.5367 56.0405C24.3306 59.5918 25.334 61.2846 26.6847 63.038C27.3822 63.9434 27.5478 64.2736 27.7239 65.1106C28.5182 68.8869 30.6478 71.9575 33.7256 73.7643C34.2746 74.0867 34.7502 74.3699 34.7824 74.3938C34.8986 74.4798 34.0331 76.4351 33.8811 76.4301C33.7955 76.4282 33.5651 76.3334 33.3691 76.2213C33.173 76.1091 32.8679 76.0152 32.691 76.0124C32.2953 76.0066 30.2014 74.9155 27.101 73.1005C25.6867 72.2726 24.3838 71.6184 23.8212 71.4537C21.6766 70.8261 18.9621 70.3136 15.1159 69.8104C14.1355 69.6821 12.6287 69.4442 11.7675 69.2816C10.0968 68.9663 9.52316 68.9774 7.20142 69.3703C6.49554 69.4897 4.73084 69.6293 3.27987 69.6804C0.333408 69.7841 0 69.8522 0 70.3488C0 71.1788 0.824161 71.3887 4.87801 71.5912C7.26342 71.7103 7.76086 71.7743 8.16844 72.0149C8.68669 72.3207 8.92207 72.3575 11.836 72.589C15.9955 72.9194 20.9276 74.0549 22.3055 74.9994C22.6257 75.2189 24.46 76.1815 26.3815 77.1385C28.8464 78.3661 30.0013 79.0197 30.3031 79.3578C30.8235 79.9408 31.6477 80.3578 32.5345 80.4871C33.1331 80.5744 33.6743 81.3448 33.3426 81.6375C33.318 81.6592 32.97 81.8417 32.5694 82.0429C32.1688 82.244 31.641 82.577 31.3965 82.7827C30.952 83.1568 30.952 83.1568 28.9876 82.9912C24.7978 82.638 20.7438 83.4831 18.7654 85.1224C16.8735 86.6899 13.702 94.0762 14.0462 96.1134C14.2059 97.0588 12.2337 101.844 8.3452 109.947C7.42299 111.868 6.91422 112.432 6.52093 113.797C6.32207 114.487 6.32496 114.956 6.26577 115.936C6.0115 120.148 5.53136 126.026 5.25812 128.271C4.48307 134.641 4.81786 138.921 6.1338 139.466C6.97348 139.814 7.06071 139.538 6.86394 137.156C6.49637 132.708 8.57837 117.409 9.69308 116.368C10.3115 115.79 11.0254 114.23 13.7532 107.494C14.4934 105.667 15.6856 102.76 16.4025 101.034C17.6841 97.9497 18.2952 94.615 19.7567 91.6223C20.1852 90.7448 20.498 89.664 21.3283 89.1499C21.744 88.8924 22.3007 89.0446 22.7874 88.9969C24.6725 88.8119 25.1289 88.7249 28.4462 88.4794C29.6447 88.3907 29.5485 88.5199 28.0215 89.0499C23.967 90.4573 21.1407 92.6557 20.0433 95.2557C18.2489 99.5068 17.4239 103.256 17.8204 105.357C18.061 106.632 17.7002 109.108 15.8109 119.145C13.3246 132.352 13.845 131.452 13.9868 132.763C14.0201 133.071 14.4076 133.873 14.6049 134.618C15.0744 136.394 18.2941 145.748 19.3902 148.521C21.0741 152.781 23.8675 156.04 24.927 154.981Z" fill="#333333"/>
<path d="M52.7252 71.8751L52.7079 71.8924L52.7272 71.8934C52.7272 71.8857 52.7252 71.8847 52.7252 71.8751ZM45.9341 80.5837C45.3837 80.5824 44.8238 80.6426 44.3228 80.7011C42.8407 80.8738 40.9271 81.1518 40.2066 82.4585C38.6212 85.3336 39.2052 93.5226 45.2713 92.8398C51.3375 92.1571 50.4968 83.8877 48.2988 81.3887C47.7437 80.7575 46.8515 80.5859 45.9341 80.5837Z" fill="#9E191D"/>
<path d="M42.5063 37.5409C36.4896 37.7955 30.7467 44.2899 28.5244 54.5685C28.3888 55.1959 28.1965 55.8705 28.097 56.0674C27.6452 56.9607 27.4216 62.8355 27.7998 63.8705C27.9079 64.1661 28.1024 64.8896 28.2321 65.4778C29.4064 70.7983 33.9272 74.7949 39.5819 75.5114C47.8332 76.5569 55.509 72.1344 57.6173 65.121C57.8297 64.4151 58.1081 63.5171 58.2356 63.125C60.0918 57.4167 54.4556 43.7236 48.4943 39.4574C46.5479 38.0646 44.5118 37.4561 42.5063 37.5409ZM54.6572 75.0005C54.0986 75.4036 53.993 75.5485 54.0727 75.7977C54.3338 76.6145 54.5512 77.5648 54.5528 77.8961C54.5542 78.0987 54.5978 78.3071 54.6501 78.3593C54.9855 78.6947 56.4668 78.0537 56.9006 77.3852C57.0533 77.1499 57.9513 76.3312 57.212 74.8741C56.4728 73.417 55.0321 74.7297 54.6572 75.0005ZM30.6735 79.2251C30.99 79.5535 31.4714 79.8928 31.743 79.9795C32.9574 80.3666 33.4234 80.2379 33.5193 79.4885C33.567 79.116 33.6978 78.4263 33.8106 77.9557C34.0506 76.9544 33.7914 76.5589 32.7718 76.3732C32.0966 76.2505 31.2389 75.8193 30.2446 77.01C29.2504 78.2006 30.2292 78.7645 30.6735 79.2251ZM55.1204 80.3692C54.7556 80.3769 54.7067 80.7047 54.4991 81.8056C54.1139 83.8488 53.2567 85.4614 51.7586 86.9595C50.272 88.446 49.9167 89.4998 50.864 89.6156C53.1421 89.8939 53.6999 89.7533 53.6999 88.8999C53.7014 87.5359 54.1266 87.0378 55.5498 86.7369C57.2479 86.378 58.0021 85.5921 56.8112 85.4218C54.6501 85.1126 54.5153 82.4945 56.6054 81.4229C57.3139 81.0595 57.1347 80.8419 55.8579 80.5153C55.517 80.4282 55.2861 80.3659 55.1204 80.3692ZM33.3235 82.1813C33.1263 82.1852 32.829 82.3165 32.3732 82.5779C31.1851 83.2594 31.0443 83.6182 31.8931 83.8045C33.8666 84.2379 34.0667 87.2256 32.1665 87.888C31.1322 88.2485 32.0163 88.722 33.7241 88.722C35.248 88.722 35.8742 89.2527 35.8742 90.545C35.8742 90.8496 35.9163 91.1419 35.9686 91.1941C36.0911 91.3166 36.0681 91.3179 37.1783 91.0827C38.4021 90.8233 39.3493 90.3503 39.2359 90.0549C39.19 89.9349 39.1138 89.6798 39.0659 89.4893C39.0065 89.2526 38.6655 88.9597 37.9894 88.5649C35.7832 87.2763 34.2425 85.1313 33.6734 82.554C33.6178 82.3019 33.5207 82.1778 33.3235 82.1813ZM50.3083 90.0808C50.1885 90.0808 50.0556 90.2556 49.9008 90.5897C49.461 91.5389 48.7193 92.4539 47.1397 93.0834C45.5601 93.7129 45.5188 93.8317 45.5699 94.4266C45.628 95.1044 46.2823 95.9654 47.0679 96.3988C49.0596 97.4977 51.3324 94.7328 50.872 91.7706C50.6935 90.6222 50.5218 90.0785 50.3083 90.0808ZM39.4725 90.8332C39.4516 90.8352 39.4387 90.8575 39.4377 90.8969C39.4377 90.9165 39.374 91.3179 39.2965 91.7885C38.9449 93.9246 40.067 96.3552 41.6672 96.9256C43.2022 97.4726 44.6411 96.5517 44.9137 94.8471C45.0318 94.1083 44.908 93.8561 43.4572 93.6419C42.0064 93.4277 40.4554 92.2681 39.9717 91.4208C39.7708 91.069 39.561 90.8295 39.4767 90.8333C39.4759 90.8333 39.4744 90.8333 39.4725 90.8332Z" fill="#9E191D"/>
<path d="M46.0759 92.2655C46.6071 92.2655 47.0377 91.8349 47.0377 91.3037C47.0377 90.7725 46.6071 90.3419 46.0759 90.3419C45.5448 90.3419 45.1142 90.7725 45.1142 91.3037C45.1142 91.8349 45.5448 92.2655 46.0759 92.2655Z" fill="#333333"/>
<path d="M43.7594 92.3978C44.2906 92.3978 44.7212 91.9672 44.7212 91.4361C44.7212 90.9049 44.2906 90.4743 43.7594 90.4743C43.2283 90.4743 42.7977 90.9049 42.7977 91.4361C42.7977 91.9672 43.2283 92.3978 43.7594 92.3978Z" fill="#333333"/>
<path d="M47.6148 90.3419C47.9335 90.3419 48.1918 90.0835 48.1918 89.7648C48.1918 89.4461 47.9335 89.1878 47.6148 89.1878C47.2961 89.1878 47.0377 89.4461 47.0377 89.7648C47.0377 90.0835 47.2961 90.3419 47.6148 90.3419Z" fill="#333333"/>
<path d="M42.2206 90.4743C42.5393 90.4743 42.7976 90.2159 42.7976 89.8972C42.7976 89.5785 42.5393 89.3202 42.2206 89.3202C41.9019 89.3202 41.6435 89.5785 41.6435 89.8972C41.6435 90.2159 41.9019 90.4743 42.2206 90.4743Z" fill="#333333"/>
<path d="M47.8351 47.2145C47.9732 47.2946 48.0801 47.4191 48.1382 47.5677C48.1964 47.7163 48.2024 47.8803 48.1554 48.0328L45.6146 56.2885H50.3025C50.4403 56.2884 50.5751 56.3287 50.6902 56.4044C50.8053 56.48 50.8958 56.5877 50.9504 56.7142C51.005 56.8407 51.0214 56.9804 50.9975 57.1161C50.9736 57.2517 50.9105 57.3775 50.816 57.4777L39.53 69.4691C39.4208 69.5852 39.2755 69.6609 39.1178 69.6839C38.96 69.7068 38.7992 69.6757 38.6614 69.5955C38.5236 69.5153 38.4171 69.3908 38.3591 69.2423C38.3011 69.0939 38.2952 68.9301 38.3422 68.7778L40.883 60.5207H36.195C36.0573 60.5207 35.9225 60.4805 35.8074 60.4048C35.6923 60.3291 35.6018 60.2214 35.5472 60.0949C35.4926 59.9685 35.4762 59.8288 35.5001 59.6931C35.5239 59.5574 35.587 59.4317 35.6815 59.3314L46.9675 47.3401C47.0766 47.2241 47.2217 47.1485 47.3792 47.1254C47.5367 47.1024 47.6974 47.1347 47.8351 47.2145Z" fill="#333333"/>
</g>
<defs>
<clipPath id="clip0_3_15">
<rect width="100" height="155.182" fill="white"/>
</clipPath>
</defs>
</svg>
