<?xml version="1.0" encoding="UTF-8" standalone="no"?>
<!-- Created with Inkscape (http://www.inkscape.org/) -->

<svg
   width="61.905357mm"
   height="17.991438mm"
   viewBox="0 0 61.905357 17.991438"
   version="1.1"
   id="svg1"
   xml:space="preserve"
   xmlns="http://www.w3.org/2000/svg"
   xmlns:svg="http://www.w3.org/2000/svg"><defs
     id="defs1"><clipPath
       id="clip0_2_693-4"><rect
         width="54"
         height="68"
         fill="#ffffff"
         id="rect22"
         x="0"
         y="0" /></clipPath></defs><g
     id="layer1"
     transform="translate(-17.035021,-77.746141)"><g
       style="fill:none"
       id="g1"
       transform="matrix(0.26458333,0,0,0.26458333,33.870235,35.189577)"><g
         style="fill:none"
         id="g115"
         transform="translate(-63.629157,160.84371)"><path
           d="m 54.024,30 3.84,-8.4 h 0.876 l 3.84,8.4 h -0.936 l -3.528,-7.884 h 0.36 L 54.948,30 Z m 1.512,-2.244 0.264,-0.72 h 4.884 l 0.264,0.72 z M 63.9696,30 v -8.4 h 3.144 c 0.712,0 1.324,0.116 1.836,0.348 0.512,0.224 0.904,0.552 1.176,0.984 0.28,0.424 0.42,0.94 0.42,1.548 0,0.592 -0.14,1.104 -0.42,1.536 -0.272,0.424 -0.664,0.752 -1.176,0.984 -0.512,0.232 -1.124,0.348 -1.836,0.348 h -2.652 l 0.396,-0.42 V 30 Z m 0.888,-3 -0.396,-0.432 h 2.628 c 0.84,0 1.476,-0.18 1.908,-0.54 0.44,-0.368 0.66,-0.884 0.66,-1.548 0,-0.672 -0.22,-1.192 -0.66,-1.56 -0.432,-0.368 -1.068,-0.552 -1.908,-0.552 h -2.628 l 0.396,-0.42 z m 5.8422,3 3.84,-8.4 h 0.876 l 3.84,8.4 h -0.936 l -3.528,-7.884 h 0.36 L 71.6238,30 Z m 1.512,-2.244 0.264,-0.72 h 4.884 l 0.264,0.72 z m 11.9644,2.316 c -0.632,0 -1.216,-0.104 -1.752,-0.312 -0.536,-0.216 -1,-0.516 -1.392,-0.9 -0.392,-0.384 -0.7,-0.836 -0.924,-1.356 -0.216,-0.52 -0.324,-1.088 -0.324,-1.704 0,-0.616 0.108,-1.184 0.324,-1.704 0.224,-0.52 0.532,-0.972 0.924,-1.356 0.4,-0.384 0.868,-0.68 1.404,-0.888 0.536,-0.216 1.12,-0.324 1.752,-0.324 0.608,0 1.18,0.104 1.716,0.312 0.536,0.2 0.988,0.504 1.356,0.912 l -0.564,0.564 c -0.344,-0.352 -0.724,-0.604 -1.14,-0.756 -0.416,-0.16 -0.864,-0.24 -1.344,-0.24 -0.504,0 -0.972,0.088 -1.404,0.264 -0.432,0.168 -0.808,0.412 -1.128,0.732 -0.32,0.312 -0.572,0.68 -0.756,1.104 -0.176,0.416 -0.264,0.876 -0.264,1.38 0,0.504 0.088,0.968 0.264,1.392 0.184,0.416 0.436,0.784 0.756,1.104 0.32,0.312 0.696,0.556 1.128,0.732 0.432,0.168 0.9,0.252 1.404,0.252 0.48,0 0.928,-0.08 1.344,-0.24 0.416,-0.16 0.796,-0.416 1.14,-0.768 l 0.564,0.564 c -0.368,0.408 -0.82,0.716 -1.356,0.924 -0.536,0.208 -1.112,0.312 -1.728,0.312 z M 95.2972,21.6 h 0.876 V 30 h -0.876 z m -5.256,8.4 h -0.888 v -8.4 h 0.888 z m 5.34,-3.876 h -5.436 v -0.78 h 5.436 z m 4.3257,-0.768 h 4.4401 v 0.756 h -4.4401 z m 0.096,3.876 h 5.0521 V 30 h -5.9401 v -8.4 h 5.7601 v 0.768 H 99.8029 Z M 60.22,48.2 c -1.0933,0 -2.14,-0.1533 -3.14,-0.46 -1,-0.32 -1.7933,-0.7267 -2.38,-1.22 l 0.9,-2.02 c 0.56,0.44 1.2533,0.8067 2.08,1.1 0.8267,0.2933 1.6733,0.44 2.54,0.44 0.7333,0 1.3267,-0.08 1.78,-0.24 0.4533,-0.16 0.7867,-0.3733 1,-0.64 0.2133,-0.28 0.32,-0.5933 0.32,-0.94 0,-0.4267 -0.1533,-0.7667 -0.46,-1.02 -0.3067,-0.2667 -0.7067,-0.4733 -1.2,-0.62 -0.48,-0.16 -1.02,-0.3067 -1.62,-0.44 -0.5867,-0.1333 -1.18,-0.2867 -1.78,-0.46 -0.5867,-0.1867 -1.1267,-0.42 -1.62,-0.7 C 56.16,40.6867 55.7667,40.3 55.46,39.82 55.1533,39.34 55,38.7267 55,37.98 c 0,-0.76 0.2,-1.4533 0.6,-2.08 0.4133,-0.64 1.0333,-1.1467 1.86,-1.52 0.84,-0.3867 1.9,-0.58 3.18,-0.58 0.84,0 1.6733,0.1067 2.5,0.32 0.8267,0.2133 1.5467,0.52 2.16,0.92 l -0.82,2.02 c -0.6267,-0.3733 -1.2733,-0.6467 -1.94,-0.82 -0.6667,-0.1867 -1.3067,-0.28 -1.92,-0.28 -0.72,0 -1.3067,0.0867 -1.76,0.26 -0.44,0.1733 -0.7667,0.4 -0.98,0.68 -0.2,0.28 -0.3,0.6 -0.3,0.96 0,0.4267 0.1467,0.7733 0.44,1.04 0.3067,0.2533 0.7,0.4533 1.18,0.6 0.4933,0.1467 1.04,0.2933 1.64,0.44 0.6,0.1333 1.1933,0.2867 1.78,0.46 0.6,0.1733 1.14,0.4 1.62,0.68 0.4933,0.28 0.8867,0.66 1.18,1.14 0.3067,0.48 0.46,1.0867 0.46,1.82 0,0.7467 -0.2067,1.44 -0.62,2.08 -0.4,0.6267 -1.02,1.1333 -1.86,1.52 -0.84,0.3733 -1.9,0.56 -3.18,0.56 z M 71.1028,48 V 36.2 h -4.64 V 34 h 11.88 v 2.2 h -4.64 V 48 Z m 15.556,0.2 c -1.0934,0 -2.1,-0.18 -3.02,-0.54 -0.92,-0.36 -1.72,-0.86 -2.4,-1.5 -0.68,-0.6533 -1.2067,-1.4133 -1.58,-2.28 -0.3734,-0.88 -0.56,-1.84 -0.56,-2.88 0,-1.04 0.1866,-1.9933 0.56,-2.86 0.3733,-0.88 0.9,-1.64 1.58,-2.28 0.68,-0.6533 1.48,-1.16 2.4,-1.52 0.92,-0.36 1.92,-0.54 3,-0.54 1.0933,0 2.0933,0.18 3,0.54 0.92,0.36 1.72,0.8667 2.4,1.52 0.68,0.64 1.2066,1.4 1.58,2.28 0.3733,0.8667 0.56,1.82 0.56,2.86 0,1.04 -0.1867,2 -0.56,2.88 -0.3734,0.88 -0.9,1.64 -1.58,2.28 -0.68,0.64 -1.48,1.14 -2.4,1.5 -0.9067,0.36 -1.9,0.54 -2.98,0.54 z m -0.02,-2.28 c 0.7066,0 1.36,-0.12 1.96,-0.36 0.6,-0.24 1.12,-0.58 1.56,-1.02 0.44,-0.4533 0.78,-0.9733 1.02,-1.56 0.2533,-0.6 0.38,-1.26 0.38,-1.98 0,-0.72 -0.1267,-1.3733 -0.38,-1.96 -0.24,-0.6 -0.58,-1.12 -1.02,-1.56 -0.44,-0.4533 -0.96,-0.8 -1.56,-1.04 -0.6,-0.24 -1.2534,-0.36 -1.96,-0.36 -0.7067,0 -1.36,0.12 -1.96,0.36 -0.5867,0.24 -1.1067,0.5867 -1.56,1.04 -0.44,0.44 -0.7867,0.96 -1.04,1.56 -0.24,0.5867 -0.36,1.24 -0.36,1.96 0,0.7067 0.12,1.36 0.36,1.96 0.2533,0.6 0.6,1.1267 1.04,1.58 0.44,0.44 0.96,0.78 1.56,1.02 0.6,0.24 1.2533,0.36 1.96,0.36 z M 96.9347,48 V 34 h 5.7603 c 1.24,0 2.3,0.2 3.18,0.6 0.893,0.4 1.58,0.9733 2.06,1.72 0.48,0.7467 0.72,1.6333 0.72,2.66 0,1.0267 -0.24,1.9133 -0.72,2.66 -0.48,0.7333 -1.167,1.3 -2.06,1.7 -0.88,0.3867 -1.94,0.58 -3.18,0.58 h -4.3203 l 1.16,-1.18 V 48 Z m 9.1603,0 -3.54,-5.08 h 2.78 l 3.56,5.08 z m -6.5603,-4.98 -1.16,-1.24 h 4.2003 c 1.146,0 2.006,-0.2467 2.58,-0.74 0.586,-0.4933 0.88,-1.18 0.88,-2.06 0,-0.8933 -0.294,-1.58 -0.88,-2.06 -0.574,-0.48 -1.434,-0.72 -2.58,-0.72 h -4.2003 l 1.16,-1.28 z M 111.564,48 V 34 h 2.14 l 6.12,10.22 h -1.12 L 124.724,34 h 2.14 l 0.02,14 h -2.46 l -0.02,-10.14 h 0.52 l -5.12,8.54 h -1.16 l -5.2,-8.54 h 0.6 V 48 Z"
           fill="#333333"
           id="path1-2" /><path
           d="m 137.145,48.2 c -1.067,0 -2.06,-0.1733 -2.98,-0.52 -0.907,-0.36 -1.7,-0.86 -2.38,-1.5 -0.667,-0.6533 -1.187,-1.42 -1.56,-2.3 -0.373,-0.88 -0.56,-1.84 -0.56,-2.88 0,-1.04 0.187,-2 0.56,-2.88 0.373,-0.88 0.9,-1.64 1.58,-2.28 0.68,-0.6533 1.473,-1.1533 2.38,-1.5 0.907,-0.36 1.9,-0.54 2.98,-0.54 1.147,0 2.193,0.2 3.14,0.6 0.947,0.3867 1.747,0.9667 2.4,1.74 l -1.68,1.58 c -0.507,-0.5467 -1.073,-0.9533 -1.7,-1.22 -0.627,-0.28 -1.307,-0.42 -2.04,-0.42 -0.733,0 -1.407,0.12 -2.02,0.36 -0.6,0.24 -1.127,0.58 -1.58,1.02 -0.44,0.44 -0.787,0.96 -1.04,1.56 -0.24,0.6 -0.36,1.26 -0.36,1.98 0,0.72 0.12,1.38 0.36,1.98 0.253,0.6 0.6,1.12 1.04,1.56 0.453,0.44 0.98,0.78 1.58,1.02 0.613,0.24 1.287,0.36 2.02,0.36 0.733,0 1.413,-0.1333 2.04,-0.4 0.627,-0.28 1.193,-0.7 1.7,-1.26 l 1.68,1.6 c -0.653,0.76 -1.453,1.34 -2.4,1.74 -0.947,0.4 -2,0.6 -3.16,0.6 z M 145.196,48 V 34 h 5.76 c 1.24,0 2.3,0.2 3.18,0.6 0.894,0.4 1.58,0.9733 2.06,1.72 0.48,0.7467 0.72,1.6333 0.72,2.66 0,1.0267 -0.24,1.9133 -0.72,2.66 -0.48,0.7333 -1.166,1.3 -2.06,1.7 -0.88,0.3867 -1.94,0.58 -3.18,0.58 h -4.32 l 1.16,-1.18 V 48 Z m 9.16,0 -3.54,-5.08 h 2.78 l 3.56,5.08 z m -6.56,-4.98 -1.16,-1.24 h 4.2 c 1.147,0 2.007,-0.2467 2.58,-0.74 0.587,-0.4933 0.88,-1.18 0.88,-2.06 0,-0.8933 -0.293,-1.58 -0.88,-2.06 -0.573,-0.48 -1.433,-0.72 -2.58,-0.72 h -4.2 l 1.16,-1.28 z m 10.049,4.98 6.3,-14 h 2.56 l 6.32,14 h -2.72 l -5.42,-12.62 h 1.04 l -5.4,12.62 z m 2.9,-3.24 0.7,-2.04 h 7.56 l 0.7,2.04 z m 16.619,3.24 -4.64,-14 h 2.7 l 4.14,12.66 h -1.34 l 4.3,-12.66 h 2.4 l 4.18,12.66 h -1.3 L 192.044,34 h 2.48 l -4.64,14 h -2.76 l -3.82,-11.42 h 0.72 L 180.144,48 Z m 19.278,0 V 34 h 2.6 v 11.8 h 7.32 V 48 Z m 14.372,-8.18 h 6.96 v 2.14 h -6.96 z m 0.2,6 h 7.9 V 48 h -10.5 V 34 h 10.22 v 2.18 h -7.62 z M 222.013,48 V 34 h 5.76 c 1.24,0 2.3,0.2 3.18,0.6 0.893,0.4 1.58,0.9733 2.06,1.72 0.48,0.7467 0.72,1.6333 0.72,2.66 0,1.0267 -0.24,1.9133 -0.72,2.66 -0.48,0.7333 -1.167,1.3 -2.06,1.7 -0.88,0.3867 -1.94,0.58 -3.18,0.58 h -4.32 l 1.16,-1.18 V 48 Z m 9.16,0 -3.54,-5.08 h 2.78 l 3.56,5.08 z m -6.56,-4.98 -1.16,-1.24 h 4.2 c 1.146,0 2.006,-0.2467 2.58,-0.74 0.586,-0.4933 0.88,-1.18 0.88,-2.06 0,-0.8933 -0.294,-1.58 -0.88,-2.06 -0.574,-0.48 -1.434,-0.72 -2.58,-0.72 h -4.2 l 1.16,-1.28 z"
           fill="#99181c"
           id="path2-3" /><g
           clip-path="url(#clip0_2_693-4)"
           id="g22"><path
             d="m 44.5435,54.3966 c -0.0726,0.0039 -0.349,0.1109 -0.6546,0.2539 -0.3373,0.1577 -0.8776,0.3526 -1.2005,0.433 -0.323,0.0804 -0.615,0.1722 -0.649,0.204 -0.0878,0.0821 0.1011,0.879 0.7403,3.1251 0.306,1.0749 0.6528,2.3378 0.7709,2.8068 0.2126,0.8444 1.0576,4.5793 1.222,5.4011 0.1427,0.7135 0.2714,0.9551 0.6315,1.1861 0.2945,0.1893 0.3746,0.2075 0.8053,0.1849 1.0431,-0.0547 1.368,-0.7173 1.0921,-2.2258 -0.5317,-2.9066 -1.4523,-7.09 -2.0014,-9.0943 -0.3167,-1.1559 -0.6653,-2.2258 -0.7407,-2.2723 -0.003,-0.0016 -0.0084,-0.0033 -0.0159,-0.0025 z"
             fill="#333333"
             id="path3-7" /><path
             d="m 48.5332,48.3185 c -0.083,0.0031 -0.2185,0.0887 -0.4906,0.3 -0.2536,0.197 -0.6771,0.4671 -0.9413,0.6002 -0.4012,0.2019 -0.4805,0.2715 -0.4805,0.4204 0,0.1963 0.3686,0.9598 0.9926,2.0567 2.2139,3.8921 3.9292,6.4315 4.5168,6.6869 0.4659,0.2025 1.2377,0.0535 1.5518,-0.2996 0.2088,-0.2348 0.3558,-0.6703 0.3095,-0.9168 -0.0237,-0.1259 -0.281,-0.5954 -0.5718,-1.0438 -0.6036,-0.9306 -2.1626,-3.4889 -3.3676,-5.5264 -0.863,-1.4593 -1.2879,-2.12 -1.4502,-2.2545 -0.0193,-0.016 -0.041,-0.0241 -0.0687,-0.0231 z"
             fill="#333333"
             id="path4-5" /><path
             d="m 42.3407,47.6914 c -0.1213,-3e-4 -0.236,0.1026 -0.3703,0.3143 -0.3169,0.4991 -0.8984,1.098 -1.35,1.39 -0.2272,0.1469 -0.4487,0.2786 -0.4922,0.2931 -0.1685,0.0562 1.3536,4.3185 1.6078,4.5026 0.2113,0.153 0.7692,0.0814 1.4564,-0.1873 1.0648,-0.4164 1.1459,-0.6183 0.8731,-2.1739 -0.3305,-1.8849 -0.8556,-3.3484 -1.4177,-3.9527 -0.1146,-0.1231 -0.2127,-0.1858 -0.3071,-0.1861 z"
             fill="#333333"
             id="path5-9" /><path
             d="m 35.7738,43.9977 c -0.0975,0.0055 -0.1814,0.0438 -0.3383,0.1197 -0.4199,0.2029 -1.1548,0.8696 -1.3723,1.2448 -0.094,0.1623 -0.2074,0.4336 -0.2522,0.603 -0.123,0.466 -0.0154,0.5741 0.9609,0.9642 1.0191,0.4072 2.5762,1.1029 3.6567,1.6337 0.4462,0.2192 0.9082,0.3986 1.0271,0.3986 0.7534,0 1.9716,-1.2282 1.9822,-1.9986 0.0037,-0.2672 -0.0294,-0.3365 -0.2522,-0.5288 -0.6957,-0.6004 -3.7018,-2.0214 -4.9916,-2.3591 -0.2116,-0.0554 -0.3228,-0.0829 -0.4203,-0.0775 z"
             fill="#333333"
             id="path6-2" /><path
             d="m 45.1917,42.4238 c -0.1635,0 -0.2289,0.0441 -0.2904,0.1955 -0.3457,0.8515 -0.6484,1.3808 -1.0189,1.7805 l -0.4118,0.4436 0.2189,0.3361 c 0.1202,0.1848 0.4022,0.6396 0.6266,1.0109 0.7331,1.2132 1.4346,2.258 1.5684,2.3356 0.3198,0.1856 0.7928,0.0397 1.5015,-0.4634 0.4602,-0.3268 0.6583,-0.5992 0.6583,-0.9055 0,-0.5343 -0.84,-2.5242 -1.4564,-3.4499 -0.4404,-0.6615 -1.1169,-1.2834 -1.3962,-1.2834 z"
             fill="#333333"
             id="path7-2" /><path
             d="m 36.8878,39.9699 c -0.1122,0.0032 -0.1999,0.0149 -0.2607,0.0349 -0.2122,0.0699 -0.2703,0.1402 -0.3976,0.4801 -0.3027,0.8076 -0.3571,1.9982 -0.1028,2.2521 0.0564,0.0563 0.2867,0.139 0.5117,0.1836 1.1543,0.2289 2.7659,0.6078 4.0393,0.9497 0.7829,0.2102 1.5821,0.3866 1.7759,0.3913 0.3402,0.0088 0.366,-0.0047 0.7473,-0.3998 0.4563,-0.4727 0.8671,-1.2502 0.9134,-1.729 0.0278,-0.2885 0.0092,-0.3437 -0.1605,-0.4769 -0.2608,-0.2049 -0.8065,-0.4011 -2.0342,-0.7307 -2.2697,-0.6093 -4.2468,-0.9797 -5.0318,-0.9553 z"
             fill="#333333"
             id="path8-8" /><path
             d="m 40.1461,33.9115 c -0.0714,-0.0031 -0.1538,0.0146 -0.2587,0.0426 -0.6908,0.1845 -4.8289,2.0232 -5.0956,2.2643 -0.0705,0.0637 -0.1283,0.2052 -0.1283,0.3146 0,0.5403 0.6723,1.8028 1.0977,2.0611 0.1252,0.076 0.2793,0.1147 0.361,0.0904 0.2681,-0.0794 3.6241,-1.9087 4.4487,-2.4248 0.6916,-0.4329 0.7003,-0.4894 0.2246,-1.4756 -0.3211,-0.6654 -0.4354,-0.8628 -0.6494,-0.8726 z"
             fill="#333333"
             id="path9-9" /><path
             d="m 48.4825,30.6074 c -0.887,0 -6.9606,2.4117 -7.2269,2.8697 -0.0488,0.0838 0.0402,0.3353 0.3322,0.9415 0.3619,0.7514 0.4157,0.8272 0.5893,0.8272 0.2549,0 1.1813,-0.3735 2.9492,-1.1901 0.8025,-0.3707 1.9664,-0.8792 2.5866,-1.1301 1.3138,-0.5316 1.4203,-0.5937 1.5708,-0.9103 0.3109,-0.6542 -0.1181,-1.4079 -0.8012,-1.4079 z"
             fill="#333333"
             id="path10-7" /><path
             d="m 27,40.5078 c -0.4094,2e-4 -0.8177,0.026 -1.0583,0.0762 -0.7685,0.1604 -1.4345,0.6189 -1.7983,1.2384 -0.3043,0.5181 -0.4211,1.1168 -0.4155,2.1296 0.0059,1.0545 0.1236,1.6952 0.4614,2.51 0.3011,0.7265 0.9564,1.4047 1.5887,1.6442 0.2897,0.1098 0.8096,0.1935 1.222,0.1935 0.4124,0 0.9323,-0.0837 1.222,-0.1935 0.6324,-0.2395 1.2876,-0.9177 1.5888,-1.6442 0.3377,-0.8148 0.4554,-1.4555 0.4613,-2.51 C 30.2778,42.9392 30.161,42.3405 29.8567,41.8224 29.4928,41.2029 28.8268,40.7444 28.0584,40.584 27.8177,40.5337 27.4095,40.508 27,40.5078 Z"
             fill="#333333"
             id="path11-3" /><path
             d="m 20.3218,36.5459 c -0.0072,-1e-4 -0.0128,7e-4 -0.0162,0.0024 -0.0554,0.0211 -0.1404,0.1605 -0.1889,0.3098 -0.1752,0.5396 -0.6678,1.446 -1.0819,1.9901 -0.5968,0.7841 -0.5943,0.7723 -0.361,1.6532 0.1744,0.6584 0.1987,0.8783 0.1994,1.804 8e-4,1.208 -0.1111,0.9929 0.9227,1.7773 0.7492,0.5684 1.1254,1.19 1.2801,2.1158 0.0687,0.4116 0.2201,0.4946 0.9844,0.5401 0.3697,0.0221 0.7922,0.0174 0.9389,-0.0101 0.3063,-0.0574 0.305,-0.0312 0.0463,-0.9955 -0.2166,-0.8076 -0.2671,-1.9672 -0.1226,-2.8116 0.3612,-2.1106 1.9711,-3.4082 4.077,-3.3903 2.106,-0.0179 3.7159,1.2797 4.077,3.3903 0.1445,0.8444 0.094,2.004 -0.1226,2.8116 -0.2586,0.9643 -0.26,0.9381 0.0463,0.9955 0.1467,0.0275 0.5692,0.0322 0.9389,0.0101 0.7643,-0.0455 0.9157,-0.1285 0.9845,-0.5401 0.1547,-0.9258 0.5309,-1.5474 1.2801,-2.1158 1.0337,-0.7844 0.9219,-0.5693 0.9227,-1.7773 6e-4,-0.9257 0.025,-1.1456 0.1994,-1.804 0.2333,-0.8809 0.2357,-0.8691 -0.3611,-1.6532 -0.4141,-0.5441 -0.9067,-1.4505 -1.0819,-1.9901 -0.0485,-0.1493 -0.1335,-0.2887 -0.1888,-0.3098 -0.0554,-0.0212 -0.6049,0.1444 -1.2208,0.3682 C 30.4818,37.6399 28.9517,37.9338 27,37.959 25.0483,37.9338 23.5182,37.6399 21.5264,36.9165 20.9489,36.7067 20.43,36.5475 20.3218,36.5459 Z"
             fill="#333333"
             id="path12-6" /><path
             d="m 9.4565,54.3966 c 0.07266,0.0039 0.34906,0.1109 0.6547,0.2539 0.3372,0.1577 0.8775,0.3526 1.2004,0.433 0.323,0.0804 0.615,0.1722 0.649,0.204 0.0878,0.0821 -0.101,0.879 -0.7403,3.1251 -0.306,1.0749 -0.6527,2.3378 -0.7708,2.8068 -0.2127,0.8444 -1.05767,4.5793 -1.22205,5.4011 C 9.08474,67.334 8.95602,67.5756 8.59594,67.8066 8.30146,67.9959 8.22135,68.0141 7.7906,67.9915 6.74747,67.9368 6.42265,67.2742 6.69855,65.7657 7.23019,62.8591 8.15078,58.6757 8.6999,56.6714 9.0166,55.5155 9.36524,54.4456 9.44066,54.3991 9.44365,54.3975 9.44899,54.3958 9.4565,54.3966 Z"
             fill="#333333"
             id="path13-1" /><path
             d="m 5.46678,48.3185 c 0.08305,0.0031 0.21851,0.0887 0.49059,0.3 0.25364,0.197 0.67715,0.4671 0.94139,0.6002 0.40114,0.2019 0.48044,0.2715 0.48044,0.4204 0,0.1963 -0.36863,0.9598 -0.99256,2.0567 C 4.17269,55.5879 2.45742,58.1273 1.86979,58.3827 1.40396,58.5852 0.632118,58.4362 0.318015,58.0831 0.109244,57.8483 -0.0377373,57.4128 0.00855144,57.1663 0.0321909,57.0404 0.28953,56.5709 0.580363,56.1225 1.18394,55.1919 2.74288,52.6336 3.9479,50.5961 c 0.86306,-1.4593 1.28794,-2.12 1.45025,-2.2545 0.01926,-0.016 0.04095,-0.0241 0.06863,-0.0231 z"
             fill="#333333"
             id="path14-2" /><path
             d="m 11.6593,47.6914 c 0.1213,-3e-4 0.236,0.1026 0.3704,0.3143 0.3168,0.4991 0.8983,1.098 1.3499,1.39 0.2272,0.1469 0.4487,0.2786 0.4922,0.2931 0.1685,0.0562 -1.3535,4.3185 -1.6078,4.5026 -0.2112,0.153 -0.7692,0.0814 -1.4563,-0.1873 -1.06488,-0.4164 -1.14596,-0.6183 -0.8732,-2.1739 0.3305,-1.8849 0.8556,-3.3484 1.4178,-3.9527 0.1145,-0.1231 0.2126,-0.1858 0.307,-0.1861 z"
             fill="#333333"
             id="path15-9" /><path
             d="m 18.2262,43.9977 c 0.0975,0.0055 0.1814,0.0438 0.3383,0.1197 0.4199,0.2029 1.1548,0.8696 1.3723,1.2448 0.0941,0.1623 0.2075,0.4336 0.2522,0.603 0.1231,0.466 0.0154,0.5741 -0.9609,0.9642 -1.0191,0.4072 -2.5762,1.1029 -3.6567,1.6337 -0.4462,0.2192 -0.9082,0.3986 -1.027,0.3986 -0.7535,0 -1.9717,-1.2282 -1.9823,-1.9986 -0.0037,-0.2672 0.0294,-0.3365 0.2522,-0.5288 0.6957,-0.6004 3.7018,-2.0214 4.9916,-2.3591 0.2116,-0.0554 0.3228,-0.0829 0.4203,-0.0775 z"
             fill="#333333"
             id="path16-3" /><path
             d="m 8.80833,42.4238 c 0.1635,0 0.2289,0.0441 0.29038,0.1955 0.34571,0.8515 0.64838,1.3808 1.01899,1.7805 l 0.4118,0.4436 -0.2189,0.3361 C 10.1903,45.3643 9.9083,45.8191 9.68392,46.1904 8.95087,47.4036 8.24935,48.4484 8.1155,48.526 7.79577,48.7116 7.32269,48.5657 6.61407,48.0626 6.15383,47.7358 5.95576,47.4634 5.95576,47.1571 c 0,-0.5343 0.83997,-2.5242 1.45634,-3.4499 0.44041,-0.6615 1.11696,-1.2834 1.39623,-1.2834 z"
             fill="#333333"
             id="path17-1" /><path
             d="m 17.1122,39.9699 c 0.1122,0.0032 0.1999,0.0149 0.2608,0.0349 0.2121,0.0699 0.2702,0.1402 0.3976,0.4801 0.3026,0.8076 0.357,1.9982 0.1027,2.2521 -0.0564,0.0563 -0.2866,0.139 -0.5117,0.1836 -1.1543,0.2289 -2.7659,0.6078 -4.0393,0.9497 -0.7829,0.2102 -1.5821,0.3866 -1.7759,0.3913 -0.3402,0.0088 -0.366,-0.0047 -0.7473,-0.3998 -0.4562,-0.4727 -0.86707,-1.2502 -0.91333,-1.729 -0.02787,-0.2885 -0.00921,-0.3437 0.16043,-0.4769 0.2609,-0.2049 0.8065,-0.4011 2.0342,-0.7307 2.2698,-0.6093 4.2468,-0.9797 5.0318,-0.9553 z"
             fill="#333333"
             id="path18-9" /><path
             d="m 13.8539,33.9115 c 0.0714,-0.0031 0.1538,0.0146 0.2587,0.0426 0.6908,0.1845 4.8289,2.0232 5.0956,2.2643 0.0705,0.0637 0.1283,0.2052 0.1283,0.3146 0,0.5403 -0.6723,1.8028 -1.0977,2.0611 -0.1252,0.076 -0.2793,0.1147 -0.361,0.0904 -0.268,-0.0794 -3.6241,-1.9087 -4.4487,-2.4248 -0.6916,-0.4329 -0.7003,-0.4894 -0.2245,-1.4756 0.321,-0.6654 0.4353,-0.8628 0.6493,-0.8726 z"
             fill="#333333"
             id="path19-4" /><path
             d="m 5.51755,30.6074 c 0.88694,0 6.96055,2.4117 7.22685,2.8697 0.0488,0.0838 -0.0402,0.3353 -0.3322,0.9415 -0.3619,0.7514 -0.4156,0.8272 -0.5892,0.8272 -0.2549,0 -1.1813,-0.3735 -2.94928,-1.1901 C 8.07122,33.685 6.90727,33.1765 6.28715,32.9256 4.97333,32.394 4.86677,32.3319 4.71628,32.0153 4.40538,31.3611 4.83438,30.6074 5.51755,30.6074 Z"
             fill="#333333"
             id="path20-7" /><path
             d="M 47.2844,5.66217e-4 C 46.9844,-0.0090064 46.6836,0.102534 46.5188,0.355362 46.462,0.442492 46.2079,1.55331 45.9539,2.82358 45.7,4.09386 45.327,5.90069 45.125,6.83874 c -0.4289,1.99229 -0.4865,2.40578 -0.346,2.49254 0.0539,0.03327 0.386,0.14798 0.7384,0.25465 0.7899,0.23915 1.0709,0.25321 1.1749,0.05917 C 46.976,9.11581 48.2685,1.07721 48.1474,0.595377 48.0544,0.225351 47.67,0.0128936 47.2844,5.66217e-4 Z M 44.5569,10.3049 c -0.2482,0.0157 -0.2502,0.0183 -0.4788,0.6909 -0.5193,1.5273 -0.8212,2.6162 -0.7757,2.7971 0.0511,0.2034 0.502,0.5009 0.9901,0.6532 0.165,0.0515 0.5012,0.0958 0.7477,0.0982 0.6431,0.007 0.7232,-0.0925 0.9978,-1.2437 0.597,-2.5025 0.6067,-2.4472 -0.4857,-2.7824 -0.4105,-0.126 -0.8584,-0.222 -0.9954,-0.2133 z m -35.11383,0 c 0.24818,0.0157 0.25013,0.0183 0.47881,0.6909 0.51932,1.5273 0.82112,2.6162 0.77572,2.7971 -0.0512,0.2034 -0.502,0.5009 -0.99015,0.6532 -0.16496,0.0515 -0.50122,0.0958 -0.74766,0.0982 -0.64315,0.007 -0.72319,-0.0925 -0.99784,-1.2437 -0.59702,-2.5025 -0.60672,-2.4472 0.48572,-2.7824 0.41051,-0.126 0.85838,-0.222 0.9954,-0.2133 z M 6.71558,5.66217e-4 C 7.01551,-0.0090064 7.3163,0.102534 7.48111,0.355362 7.5379,0.442492 7.79209,1.55331 8.04602,2.82358 8.29996,4.09386 8.67293,5.90069 8.87491,6.83874 9.30388,8.83103 9.36141,9.24452 9.22092,9.33128 9.16706,9.36455 8.83491,9.47926 8.4826,9.58593 7.69261,9.82508 7.41169,9.83914 7.3077,9.6451 7.02399,9.11581 5.73146,1.07721 5.85257,0.595377 5.94559,0.225351 6.32994,0.0128936 6.71558,5.66217e-4 Z M 27,12.6068 c -0.4897,0.0039 -0.9748,0.0547 -1.3378,0.1521 -1.9209,0.5153 -3.8635,2.1197 -5.4375,4.4908 -1.65,2.4854 -2.7239,5.2999 -3.2128,8.4212 -0.1666,1.0635 -0.1682,3.2217 -0.0032,4.168 0.6532,3.7473 3.0266,6.0123 7.1676,6.8394 0.8937,0.1785 1.9314,0.287 2.8237,0.3045 0.8923,-0.0175 1.9301,-0.126 2.8237,-0.3045 4.141,-0.8271 6.5144,-3.0921 7.1676,-6.8394 0.165,-0.9463 0.1633,-3.1045 -0.0032,-4.168 -0.4889,-3.1213 -1.5628,-5.9358 -3.2128,-8.4212 -1.574,-2.3711 -3.5166,-3.9755 -5.4375,-4.4908 C 27.9749,12.6615 27.4896,12.6106 27,12.6068 Z m -15.9243,2.2266 c -0.0657,0 -0.3395,0.0941 -0.6088,0.2092 -0.2693,0.1151 -0.73024,0.283 -1.02383,0.3731 -0.47538,0.1458 -0.53608,0.1845 -0.55557,0.3527 -0.0498,0.4297 1.605,4.0803 2.7612,6.0913 1.187,2.0644 2.6099,4.0871 3.584,5.095 0.5006,0.5179 0.6637,0.6174 0.7204,0.4395 0.0156,-0.0489 0.0656,-0.4249 0.1113,-0.8353 0.0457,-0.4104 0.1599,-1.1455 0.2538,-1.6341 0.094,-0.4886 0.1709,-0.9696 0.171,-1.0685 2e-4,-0.1118 -0.2912,-0.6091 -0.7704,-1.3146 -1.1918,-1.7545 -2.9213,-4.6778 -4.2135,-7.122 -0.2001,-0.3785 -0.3525,-0.5863 -0.4296,-0.5863 z m 31.8486,0 c -0.0771,0 -0.2296,0.2078 -0.4297,0.5863 -1.2922,2.4442 -3.0216,5.3675 -4.2135,7.122 -0.4792,0.7055 -0.7705,1.2028 -0.7704,1.3146 2e-4,0.0989 0.077,0.5799 0.171,1.0685 0.094,0.4886 0.2081,1.2237 0.2538,1.6341 0.0457,0.4104 0.0957,0.7864 0.1113,0.8353 0.0567,0.1779 0.2199,0.0784 0.7205,-0.4395 0.974,-1.0079 2.397,-3.0306 3.5839,-5.095 1.1563,-2.011 2.811,-5.6616 2.7612,-6.0913 -0.0195,-0.1682 -0.0801,-0.2069 -0.5555,-0.3527 -0.2936,-0.0901 -0.7546,-0.258 -1.0238,-0.3731 -0.2693,-0.1151 -0.5431,-0.2092 -0.6088,-0.2092 z"
             fill="#333333"
             id="path21-8" /><path
             d="m 30.0562,17.3484 c 0.1894,0.1097 0.2779,0.3355 0.2134,0.5444 l -1.6931,5.4928 h 3.1238 c 0.4122,-2e-4 0.625,0.4918 0.3422,0.7912 L 24.522,32.155 c -0.3413,0.3623 -0.9385,0.0153 -0.7915,-0.4599 l 1.693,-5.4937 h -3.1238 c -0.4122,2e-4 -0.625,-0.4918 -0.3422,-0.7912 L 29.478,17.432 c 0.1497,-0.1589 0.3892,-0.1939 0.5782,-0.0845 z"
             fill="#99181c"
             id="path22" /></g></g></g></g></svg>
